<mxfile host="app.diagrams.net" agent="Mozilla/5.0 (Windows NT 10.0; Win64; x64) AppleWebKit/537.36 (KHTML, like Gecko) Chrome/130.0.0.0 YaBrowser/24.12.0.0 Safari/537.36" version="25.0.3">
  <diagram name="Страница — 1" id="Qg7TNX0esdktX7MQRUZs">
    <mxGraphModel dx="500" dy="274" grid="1" gridSize="10" guides="1" tooltips="1" connect="1" arrows="1" fold="1" page="1" pageScale="1" pageWidth="827" pageHeight="900" math="0" shadow="0">
      <root>
        <mxCell id="0" />
        <mxCell id="1" parent="0" />
        <mxCell id="b8q81cn3WwMqUTTSJ5ZS-9" value="Client" style="swimlane;fontStyle=1;align=center;verticalAlign=top;childLayout=stackLayout;horizontal=1;startSize=26;horizontalStack=0;resizeParent=1;resizeParentMax=0;resizeLast=0;collapsible=1;marginBottom=0;whiteSpace=wrap;html=1;" parent="1" vertex="1">
          <mxGeometry x="334" y="40" width="160" height="190" as="geometry" />
        </mxCell>
        <mxCell id="b8q81cn3WwMqUTTSJ5ZS-10" value="- ClientID: int&lt;div&gt;- LastName: string&lt;div&gt;- FirstName: string&lt;div&gt;- MiddleName: string&lt;div&gt;- Address: string&lt;div&gt;- Phone:&amp;nbsp;&lt;span style=&quot;background-color: initial;&quot;&gt;string&lt;/span&gt;&lt;/div&gt;&lt;/div&gt;&lt;/div&gt;&lt;/div&gt;&lt;/div&gt;" style="text;strokeColor=none;fillColor=none;align=left;verticalAlign=top;spacingLeft=4;spacingRight=4;overflow=hidden;rotatable=0;points=[[0,0.5],[1,0.5]];portConstraint=eastwest;whiteSpace=wrap;html=1;" parent="b8q81cn3WwMqUTTSJ5ZS-9" vertex="1">
          <mxGeometry y="26" width="160" height="94" as="geometry" />
        </mxCell>
        <mxCell id="b8q81cn3WwMqUTTSJ5ZS-11" value="" style="line;strokeWidth=1;fillColor=none;align=left;verticalAlign=middle;spacingTop=-1;spacingLeft=3;spacingRight=3;rotatable=0;labelPosition=right;points=[];portConstraint=eastwest;strokeColor=inherit;" parent="b8q81cn3WwMqUTTSJ5ZS-9" vertex="1">
          <mxGeometry y="120" width="160" height="10" as="geometry" />
        </mxCell>
        <mxCell id="b8q81cn3WwMqUTTSJ5ZS-12" value="+ __init__()&lt;div&gt;+ to_dict(): dict&lt;div&gt;+ from_dict(): Client&lt;/div&gt;&lt;/div&gt;" style="text;strokeColor=none;fillColor=none;align=left;verticalAlign=top;spacingLeft=4;spacingRight=4;overflow=hidden;rotatable=0;points=[[0,0.5],[1,0.5]];portConstraint=eastwest;whiteSpace=wrap;html=1;" parent="b8q81cn3WwMqUTTSJ5ZS-9" vertex="1">
          <mxGeometry y="130" width="160" height="60" as="geometry" />
        </mxCell>
        <mxCell id="b8q81cn3WwMqUTTSJ5ZS-17" style="edgeStyle=orthogonalEdgeStyle;rounded=0;orthogonalLoop=1;jettySize=auto;html=1;startArrow=none;startFill=0;endArrow=diamondThin;endFill=0;" parent="1" source="b8q81cn3WwMqUTTSJ5ZS-13" target="b8q81cn3WwMqUTTSJ5ZS-9" edge="1">
          <mxGeometry relative="1" as="geometry" />
        </mxCell>
        <mxCell id="b8q81cn3WwMqUTTSJ5ZS-13" value="ClientRepYAML" style="swimlane;fontStyle=1;align=center;verticalAlign=top;childLayout=stackLayout;horizontal=1;startSize=26;horizontalStack=0;resizeParent=1;resizeParentMax=0;resizeLast=0;collapsible=1;marginBottom=0;whiteSpace=wrap;html=1;" parent="1" vertex="1">
          <mxGeometry x="324" y="320" width="180" height="250" as="geometry" />
        </mxCell>
        <mxCell id="b8q81cn3WwMqUTTSJ5ZS-14" value="- file_path: str&lt;div&gt;- clients: list[Client]&lt;/div&gt;" style="text;strokeColor=none;fillColor=none;align=left;verticalAlign=top;spacingLeft=4;spacingRight=4;overflow=hidden;rotatable=0;points=[[0,0.5],[1,0.5]];portConstraint=eastwest;whiteSpace=wrap;html=1;" parent="b8q81cn3WwMqUTTSJ5ZS-13" vertex="1">
          <mxGeometry y="26" width="180" height="44" as="geometry" />
        </mxCell>
        <mxCell id="b8q81cn3WwMqUTTSJ5ZS-15" value="" style="line;strokeWidth=1;fillColor=none;align=left;verticalAlign=middle;spacingTop=-1;spacingLeft=3;spacingRight=3;rotatable=0;labelPosition=right;points=[];portConstraint=eastwest;strokeColor=inherit;" parent="b8q81cn3WwMqUTTSJ5ZS-13" vertex="1">
          <mxGeometry y="70" width="180" height="8" as="geometry" />
        </mxCell>
        <mxCell id="b8q81cn3WwMqUTTSJ5ZS-16" value="+ __init__(file_path: str)&lt;div&gt;+ load_data() -&amp;gt; Void&lt;/div&gt;&lt;div&gt;+ save_data() -&amp;gt;&amp;nbsp;&lt;span style=&quot;background-color: initial;&quot;&gt;Void&lt;/span&gt;&lt;/div&gt;&lt;div&gt;+ get_by_id(id: int) -&amp;gt; Client&lt;/div&gt;&lt;div&gt;+ get_k_n_short_list(k, n)&lt;/div&gt;&lt;div&gt;+ sort_by_last_name() -&amp;gt;&amp;nbsp;&lt;span style=&quot;background-color: initial;&quot;&gt;Void&lt;/span&gt;&lt;/div&gt;&lt;div&gt;+ add(client: Client) -&amp;gt;&amp;nbsp;&lt;span style=&quot;background-color: initial;&quot;&gt;Void&lt;/span&gt;&lt;/div&gt;&lt;div&gt;+ replace_by_id(id, client)&lt;/div&gt;&lt;div&gt;+ delete_by_id(id) -&amp;gt; bool&lt;/div&gt;&lt;div&gt;+ get_count() -&amp;gt; int&lt;/div&gt;&lt;div&gt;+ display_all() -&amp;gt;&amp;nbsp;&lt;span style=&quot;background-color: initial;&quot;&gt;Void&lt;/span&gt;&lt;/div&gt;" style="text;strokeColor=none;fillColor=none;align=left;verticalAlign=top;spacingLeft=4;spacingRight=4;overflow=hidden;rotatable=0;points=[[0,0.5],[1,0.5]];portConstraint=eastwest;whiteSpace=wrap;html=1;" parent="b8q81cn3WwMqUTTSJ5ZS-13" vertex="1">
          <mxGeometry y="78" width="180" height="172" as="geometry" />
        </mxCell>
      </root>
    </mxGraphModel>
  </diagram>
</mxfile>
